<?xml version="1.0" encoding="utf-8"?>
<!-- Generator: Adobe Illustrator 16.0.0, SVG Export Plug-In . SVG Version: 6.00 Build 0)  -->
<!DOCTYPE svg PUBLIC "-//W3C//DTD SVG 1.1//EN" "http://www.w3.org/Graphics/SVG/1.1/DTD/svg11.dtd">
<svg version="1.1" id="Layer_1" xmlns="http://www.w3.org/2000/svg" xmlns:xlink="http://www.w3.org/1999/xlink" x="0px" y="0px"
	 width="33px" height="33px" viewBox="0 0 33 33" enable-background="new 0 0 33 33" xml:space="preserve">
<path fill-rule="evenodd" clip-rule="evenodd" fill="#FFFFFF" d="M12.472,16.623v14.99c0,0.215,0.175,0.39,0.391,0.39h5.566
	c0.216,0,0.391-0.175,0.391-0.39V16.378h4.035c0.203,0,0.372-0.156,0.39-0.359l0.388-4.589c0.02-0.228-0.16-0.423-0.39-0.423H18.82
	V7.75c0-0.764,0.618-1.382,1.381-1.382h3.111c0.216,0,0.39-0.175,0.39-0.392v-4.59c0-0.215-0.174-0.39-0.39-0.39h-5.256
	c-3.084,0-5.584,2.5-5.584,5.584v4.426H9.689c-0.216,0-0.391,0.175-0.391,0.39v4.591c0,0.216,0.175,0.391,0.391,0.391h2.783V16.623z
	"/>
</svg>
