<?xml version="1.0" encoding="utf-8"?>
<!-- Generator: Adobe Illustrator 16.0.0, SVG Export Plug-In . SVG Version: 6.00 Build 0)  -->
<!DOCTYPE svg PUBLIC "-//W3C//DTD SVG 1.1//EN" "http://www.w3.org/Graphics/SVG/1.1/DTD/svg11.dtd">
<svg version="1.1" id="Layer_1" xmlns="http://www.w3.org/2000/svg" xmlns:xlink="http://www.w3.org/1999/xlink" x="0px" y="0px"
	 width="33px" height="33px" viewBox="0 0 33 33" enable-background="new 0 0 33 33" xml:space="preserve">
<g>
	<path fill="#FFFFFF" d="M25.087,6.075c-1.051,0-1.901,0.851-1.901,1.901c0,1.05,0.851,1.901,1.901,1.901
		c1.05,0,1.9-0.852,1.9-1.901C26.987,6.925,26.137,6.075,25.087,6.075"/>
	<path fill="#FFFFFF" d="M16.634,8.512c-4.404,0-7.987,3.583-7.987,7.987s3.583,7.987,7.987,7.987c4.403,0,7.986-3.583,7.986-7.987
		S21.037,8.512,16.634,8.512 M16.634,21.616c-2.821,0-5.117-2.295-5.117-5.116c0-2.82,2.296-5.116,5.117-5.116
		s5.116,2.296,5.116,5.116C21.75,19.321,19.455,21.616,16.634,21.616"/>
	<path fill="#FFFFFF" d="M22.975,32.716H10.025c-5.371,0-9.741-4.37-9.741-9.742V10.025c0-5.371,4.37-9.741,9.741-9.741h12.949
		c5.371,0,9.741,4.37,9.741,9.741v12.949C32.716,28.346,28.346,32.716,22.975,32.716 M10.025,3.334c-3.688,0-6.69,3.001-6.69,6.69
		v12.949c0,3.689,3.002,6.69,6.69,6.69h12.949c3.689,0,6.69-3.001,6.69-6.69V10.025c0-3.689-3.001-6.69-6.69-6.69H10.025z"/>
</g>
</svg>
