<?xml version="1.0" encoding="utf-8"?>
<!-- Generator: Adobe Illustrator 16.0.0, SVG Export Plug-In . SVG Version: 6.00 Build 0)  -->
<!DOCTYPE svg PUBLIC "-//W3C//DTD SVG 1.1//EN" "http://www.w3.org/Graphics/SVG/1.1/DTD/svg11.dtd">
<svg version="1.1" id="Layer_1" xmlns="http://www.w3.org/2000/svg" xmlns:xlink="http://www.w3.org/1999/xlink" x="0px" y="0px"
	 width="33px" height="33px" viewBox="0 0 33 33" enable-background="new 0 0 33 33" xml:space="preserve">
<path fill-rule="evenodd" clip-rule="evenodd" fill="#FFFFFF" d="M1.82,16.806V31.18h6.845V15.636v-4.035H1.82V16.806z
	 M31.019,17.618c-0.451-3.711-2.144-6.017-7.151-6.017c-2.937,0-4.917,1.081-5.745,2.648h-0.091v-2.648h-5.458v3.765V31.18h5.71
	v-9.708c0-2.559,0.505-5.025,3.64-5.025c3.151,0,3.385,2.918,3.385,5.205v9.528h5.872V20.427
	C31.18,19.418,31.126,18.482,31.019,17.618 M5.243,1.82c-1.893,0-3.423,1.531-3.423,3.423s1.53,3.423,3.423,3.423
	c1.891,0,3.422-1.531,3.422-3.423S7.134,1.82,5.243,1.82"/>
</svg>
